mtllib buildings.mtl
o building_body
usemtl tower_wall
v -0.8 -0.8 0
v 0.8 -0.8 0
v 0.8 0.8 0
v -0.8 0.8 0
v -0.8 -0.8 3.6
v 0.8 -0.8 3.6
v 0.8 0.8 3.6
v -0.8 0.8 3.6
f 4 3 2 1
f 6 7 8 5
f 2 6 5 1
f 3 7 6 2
f 4 8 7 3
f 1 5 8 4
o ground_door
usemtl door
v -0.24 -0.83 0
v 0.24 -0.83 0
v 0.24 -0.83 0.52
v -0.24 -0.83 0.52
v -0.24 -0.80 0
v 0.24 -0.80 0
v 0.24 -0.80 0.52
v -0.24 -0.80 0.52
f 9 10 11 12
f 13 16 15 14
f 9 13 14 10
f 10 14 15 11
f 11 15 16 12
f 12 16 13 9
o floor_2_window
usemtl glass
v -0.58 -0.83 0.75
v 0.58 -0.83 0.75
v 0.58 -0.83 1.05
v -0.58 -0.83 1.05
v -0.58 -0.80 0.75
v 0.58 -0.80 0.75
v 0.58 -0.80 1.05
v -0.58 -0.80 1.05
f 17 18 19 20
f 21 24 23 22
f 17 21 22 18
f 18 22 23 19
f 19 23 24 20
f 20 24 21 17
o floor_3_window
usemtl glass
v -0.58 -0.83 1.32
v 0.58 -0.83 1.32
v 0.58 -0.83 1.62
v -0.58 -0.83 1.62
v -0.58 -0.80 1.32
v 0.58 -0.80 1.32
v 0.58 -0.80 1.62
v -0.58 -0.80 1.62
f 25 26 27 28
f 29 32 31 30
f 25 29 30 26
f 26 30 31 27
f 27 31 32 28
f 28 32 29 25
o floor_4_window
usemtl glass
v -0.58 -0.83 1.89
v 0.58 -0.83 1.89
v 0.58 -0.83 2.19
v -0.58 -0.83 2.19
v -0.58 -0.80 1.89
v 0.58 -0.80 1.89
v 0.58 -0.80 2.19
v -0.58 -0.80 2.19
f 33 34 35 36
f 37 40 39 38
f 33 37 38 34
f 34 38 39 35
f 35 39 40 36
f 36 40 37 33
o floor_5_window
usemtl glass
v -0.58 -0.83 2.46
v 0.58 -0.83 2.46
v 0.58 -0.83 2.76
v -0.58 -0.83 2.76
v -0.58 -0.80 2.46
v 0.58 -0.80 2.46
v 0.58 -0.80 2.76
v -0.58 -0.80 2.76
f 41 42 43 44
f 45 48 47 46
f 41 45 46 42
f 42 46 47 43
f 43 47 48 44
f 44 48 45 41
o floor_6_window
usemtl glass
v -0.58 -0.83 3.03
v 0.58 -0.83 3.03
v 0.58 -0.83 3.33
v -0.58 -0.83 3.33
v -0.58 -0.80 3.03
v 0.58 -0.80 3.03
v 0.58 -0.80 3.33
v -0.58 -0.80 3.33
f 49 50 51 52
f 53 56 55 54
f 49 53 54 50
f 50 54 55 51
f 51 55 56 52
f 52 56 53 49
