# WaveFront *.obj file (generated by Autodesk ATF)

mtllib car.mtl

g 본체1

v -1.000000 -0.500000 3.500000
v -1.000000 -1.500000 2.000000
v 0.000000 -0.500000 2.000000
v -0.333333 -0.500000 2.500000
v 3.000000 -0.500000 2.500000
v 3.000000 -0.500000 3.500000
v -1.000000 1.500000 2.000000
v -1.000000 0.500000 3.500000
v -0.333333 0.500000 2.500000
v 0.000000 0.500000 2.000000
v 3.000000 0.500000 3.500000
v 3.000000 0.500000 2.500000
v -1.500000 -0.500000 3.000000
v -2.500000 -0.500000 2.000000
v -2.500000 -1.500000 2.000000
v -2.500000 0.500000 2.000000
v -1.500000 0.500000 3.000000
v 0.000000 1.500000 2.000000
v 0.000000 -1.500000 2.000000
v -2.500000 1.500000 2.000000
v -3.000000 -1.500000 0.000000
v 3.000000 -1.500000 0.000000
v 3.000000 -1.500000 1.000000
v -3.000000 -1.500000 1.000000
v 3.000000 1.500000 0.000000
v 3.000000 1.500000 1.000000
v -3.000000 1.500000 1.000000
v -3.000000 1.500000 0.000000
vt -1.248075 1.300887 0.000000
vt -0.000000 0.000000 0.000000
vt -0.046225 1.300887 0.000000
vt 0.554700 1.300887 0.000000
vt -0.750000 0.250000 0.000000
vt 0.250000 0.916667 0.000000
vt -0.750000 4.250000 0.000000
vt 0.250000 4.250000 0.000000
vt -0.000000 0.000000 0.000000
vt 1.201850 -0.000000 0.000000
vt 1.248075 1.300887 0.000000
vt 1.802776 -0.000000 0.000000
vt 0.750000 0.250000 0.000000
vt 0.750000 4.250000 0.000000
vt -0.250000 0.916667 0.000000
vt -0.250000 4.250000 0.000000
vt 1.201850 -0.500000 0.000000
vt 1.802776 -0.500000 0.000000
vt 1.201850 0.500000 0.000000
vt 1.802776 0.500000 0.000000
vt 0.333333 0.500000 0.000000
vt -3.000000 0.500000 0.000000
vt 0.333333 -0.500000 0.000000
vt -3.000000 -0.500000 0.000000
vt -0.000000 0.000000 0.000000
vt 1.060660 -1.457738 0.000000
vt 1.414214 -0.000000 0.000000
vt 2.121320 0.000000 0.000000
vt 1.500000 -1.500000 0.000000
vt 0.000000 -0.500000 0.000000
vt 0.000000 -1.500000 0.000000
vt 0.000000 0.000000 0.000000
vt 1.414214 0.000000 0.000000
vt 1.060660 1.457738 0.000000
vt 2.121320 0.000000 0.000000
vt 1.500000 1.500000 0.000000
vt 2.500000 0.500000 0.000000
vt 2.500000 1.500000 0.000000
vt 0.500000 0.500000 0.000000
vt 0.500000 -0.500000 0.000000
vt 4.500000 0.500000 0.000000
vt 4.500000 -0.500000 0.000000
vt -0.707107 0.500000 0.000000
vt -0.707107 -0.500000 0.000000
vt -0.000000 0.500000 0.000000
vt -0.000000 -0.500000 0.000000
vt -0.000000 0.000000 0.000000
vt 1.000000 0.000000 0.000000
vt -0.000000 1.000000 0.000000
vt 1.000000 1.000000 0.000000
vt 1.414214 0.500000 0.000000
vt 0.000000 0.500000 0.000000
vt 1.414214 -0.500000 0.000000
vt 0.000000 -0.500000 0.000000
vt 2.500000 -0.500000 0.000000
vt 1.500000 -1.500000 0.000000
vt 2.500000 -1.500000 0.000000
vt 0.000000 0.500000 0.000000
vt 1.500000 1.500000 0.000000
vt 0.000000 1.500000 0.000000
vt 1.000000 3.000000 0.000000
vt 0.000000 3.000000 0.000000
vt 1.000000 -3.000000 0.000000
vt 0.000000 -3.000000 0.000000
vt -1.000000 0.000000 0.000000
vt -1.000000 -1.000000 0.000000
vt -1.000000 -2.500000 0.000000
vt 1.000000 1.500000 0.000000
vt -0.000000 1.500000 0.000000
vt 1.000000 -1.500000 0.000000
vt 0.000000 -1.500000 0.000000
vt 3.162278 1.500000 0.000000
vt 0.000000 0.500000 0.000000
vt 3.162278 -1.500000 0.000000
vt 0.000000 -0.500000 0.000000
vt 0.000000 -1.500000 0.000000
vt 0.000000 1.500000 0.000000
vt 1.118034 -1.500000 0.000000
vt 1.118034 -0.500000 0.000000
vt 0.000000 -1.500000 0.000000
vt 1.118034 0.500000 0.000000
vt 0.000000 1.500000 0.000000
vt 1.118034 1.500000 0.000000
vt 1.000000 1.500000 0.000000
vt 0.000000 1.500000 0.000000
vt 1.000000 -1.500000 0.000000
vt 0.000000 -1.500000 0.000000
vt 6.000000 1.500000 0.000000
vt 0.000000 1.500000 0.000000
vt 6.000000 -1.500000 0.000000
vt 0.000000 -1.500000 0.000000
vt -1.000000 3.000000 0.000000
vt -1.000000 -3.000000 0.000000
vt 0.000000 3.000000 0.000000
vt 0.000000 -3.000000 0.000000
vt 1.000000 0.000000 0.000000
vt 1.000000 -1.000000 0.000000
vt 1.000000 -2.500000 0.000000
vn 0.639602 -0.639602 0.426401
vn 0.639602 -0.639602 0.426401
vn 0.639602 -0.639602 0.426401
vn 0.639602 -0.639602 0.426401
vn 0.000000 -1.000000 0.000000
vn 0.000000 -1.000000 0.000000
vn 0.000000 -1.000000 0.000000
vn 0.000000 -1.000000 0.000000
vn 0.639602 0.639602 0.426401
vn 0.639602 0.639602 0.426401
vn 0.639602 0.639602 0.426401
vn 0.639602 0.639602 0.426401
vn 0.000000 1.000000 0.000000
vn 0.000000 1.000000 0.000000
vn 0.000000 1.000000 0.000000
vn 0.000000 1.000000 0.000000
vn 0.832050 -0.000000 0.554700
vn 0.832050 -0.000000 0.554700
vn 0.832050 -0.000000 0.554700
vn 0.832050 -0.000000 0.554700
vn 0.000000 0.000000 -1.000000
vn 0.000000 0.000000 -1.000000
vn 0.000000 0.000000 -1.000000
vn 0.000000 0.000000 -1.000000
vn -0.485071 -0.727607 0.485071
vn -0.485071 -0.727607 0.485071
vn -0.485071 -0.727607 0.485071
vn -0.485071 -0.727607 0.485071
vn 0.000000 0.000000 1.000000
vn 0.000000 0.000000 1.000000
vn 0.000000 0.000000 1.000000
vn -0.485071 0.727607 0.485071
vn -0.485071 0.727607 0.485071
vn -0.485071 0.727607 0.485071
vn -0.485071 0.727607 0.485071
vn 0.000000 0.000000 1.000000
vn 0.000000 0.000000 1.000000
vn 0.000000 0.000000 1.000000
vn 0.000000 -0.000000 1.000000
vn 0.000000 -0.000000 1.000000
vn 0.000000 -0.000000 1.000000
vn 0.000000 -0.000000 1.000000
vn -0.707107 -0.000000 0.707107
vn -0.707107 -0.000000 0.707107
vn -0.707107 -0.000000 0.707107
vn -0.707107 -0.000000 0.707107
vn 1.000000 0.000000 0.000000
vn 1.000000 0.000000 0.000000
vn 1.000000 0.000000 0.000000
vn 1.000000 0.000000 0.000000
vn -0.707107 0.000000 0.707107
vn -0.707107 0.000000 0.707107
vn -0.707107 0.000000 0.707107
vn -0.707107 0.000000 0.707107
vn 0.000000 0.000000 1.000000
vn 0.000000 0.000000 1.000000
vn 0.000000 0.000000 1.000000
vn 0.000000 0.000000 1.000000
vn 0.000000 -1.000000 0.000000
vn 0.000000 -1.000000 0.000000
vn 0.000000 -1.000000 0.000000
vn 0.000000 -1.000000 0.000000
vn 0.000000 -1.000000 0.000000
vn 0.000000 -1.000000 0.000000
vn 0.000000 -1.000000 0.000000
vn 1.000000 0.000000 0.000000
vn 1.000000 0.000000 0.000000
vn 1.000000 0.000000 0.000000
vn 1.000000 0.000000 0.000000
vn 0.316228 -0.000000 0.948683
vn 0.316228 -0.000000 0.948683
vn 0.316228 -0.000000 0.948683
vn 0.316228 -0.000000 0.948683
vn 0.316228 -0.000000 0.948683
vn 0.316228 -0.000000 0.948683
vn -0.894427 0.000000 0.447214
vn -0.894427 0.000000 0.447214
vn -0.894427 0.000000 0.447214
vn -0.894427 0.000000 0.447214
vn -0.894427 0.000000 0.447214
vn -0.894427 0.000000 0.447214
vn -1.000000 0.000000 0.000000
vn -1.000000 0.000000 0.000000
vn -1.000000 0.000000 0.000000
vn -1.000000 0.000000 0.000000
vn 0.000000 0.000000 -1.000000
vn 0.000000 0.000000 -1.000000
vn 0.000000 0.000000 -1.000000
vn 0.000000 0.000000 -1.000000
vn 0.000000 1.000000 0.000000
vn 0.000000 1.000000 0.000000
vn 0.000000 1.000000 0.000000
vn 0.000000 1.000000 0.000000
vn 0.000000 1.000000 0.000000
vn 0.000000 1.000000 0.000000
vn 0.000000 1.000000 0.000000
usemtl 강철_-_새틴
f 1/1/1 2/2/2 4/3/3
f 4/3/3 2/2/2 3/4/4
f 1/5/5 4/6/6 6/7/7
f 6/7/7 4/6/6 5/8/8
f 8/9/9 9/10/10 7/11/11
f 7/11/11 9/10/10 10/12/12
f 8/13/13 11/14/14 9/15/15
f 9/15/15 11/14/14 12/16/16
f 4/17/17 3/18/18 9/19/19
f 9/19/19 3/18/18 10/20/20
f 9/21/21 12/22/22 4/23/23
f 4/23/23 12/22/22 5/24/24
f 14/25/25 2/26/26 13/27/27
f 13/27/27 2/26/26 1/28/28
f 2/29/29 14/30/30 15/31/31
f 16/32/32 17/33/33 7/34/34
f 7/34/34 17/33/33 8/35/35
f 7/36/36 10/37/37 18/38/38
f 8/39/39 1/40/40 11/41/41
f 11/41/41 1/40/40 6/42/42
f 17/43/43 13/44/44 8/45/45
f 8/45/45 13/44/44 1/46/46
f 6/47/47 5/48/48 11/49/49
f 11/49/49 5/48/48 12/50/50
f 17/51/51 16/52/52 13/53/53
f 13/53/53 16/52/52 14/54/54
f 3/55/55 2/56/29 19/57/56
f 16/58/57 7/59/36 20/60/58
f 22/61/59 23/62/60 21/63/61
f 21/63/61 23/62/60 24/64/62
f 24/64/62 23/62/60 19/65/63
f 24/64/62 19/65/63 2/66/64
f 2/66/64 15/67/65 24/64/62
f 25/68/66 26/69/67 22/70/68
f 22/70/68 26/69/67 23/71/69
f 26/72/70 10/73/71 23/74/72
f 23/74/72 10/73/71 3/75/73
f 23/74/72 3/75/73 19/76/74
f 26/72/70 18/77/75 10/73/71
f 15/78/76 14/79/77 24/80/78
f 24/80/78 14/79/77 16/81/79
f 24/80/78 16/81/79 27/82/80
f 27/82/80 16/81/79 20/83/81
f 27/84/82 28/85/83 24/86/84
f 24/86/84 28/85/83 21/87/85
f 28/88/86 25/89/87 21/90/88
f 21/90/88 25/89/87 22/91/89
f 25/92/90 28/93/91 26/94/92
f 26/94/92 28/93/91 27/95/93
f 26/94/92 27/95/93 18/96/94
f 18/96/94 27/95/93 7/97/95
f 7/97/95 27/95/93 20/98/96
# 28 vertices
# 98 texture params
# 96 normals
# 52 facets

# 1 groups
