mtllib car_textured.mtl
o car
usemtl car_atlas
v -1.000000 -0.500000 3.500000
v -1.000000 -1.500000 2.000000
v 0.000000 -0.500000 2.000000
v -0.333333 -0.500000 2.500000
v 3.000000 -0.500000 2.500000
v 3.000000 -0.500000 3.500000
v -1.000000 1.500000 2.000000
v -1.000000 0.500000 3.500000
v -0.333333 0.500000 2.500000
v 0.000000 0.500000 2.000000
v 3.000000 0.500000 3.500000
v 3.000000 0.500000 2.500000
v -1.500000 -0.500000 3.000000
v -2.500000 -0.500000 2.000000
v -2.500000 -1.500000 2.000000
v -2.500000 0.500000 2.000000
v -1.500000 0.500000 3.000000
v 0.000000 1.500000 2.000000
v 0.000000 -1.500000 2.000000
v -2.500000 1.500000 2.000000
v -3.000000 -1.500000 0.000000
v 3.000000 -1.500000 0.000000
v 3.000000 -1.500000 1.000000
v -3.000000 -1.500000 1.000000
v 3.000000 1.500000 0.000000
v 3.000000 1.500000 1.000000
v -3.000000 1.500000 1.000000
v -3.000000 1.500000 0.000000
vt 0.114583333 0.484375000
vt 0.114583333 0.283482143
vt 0.149305573 0.350446429
vt 0.114583333 0.850446429
vt 0.010416667 0.783482143
vt 0.114583333 0.783482143
vt 0.114583333 0.484375000
vt 0.149305573 0.350446429
vt 0.322916667 0.484375000
vt 0.322916667 0.484375000
vt 0.149305573 0.350446429
vt 0.322916667 0.350446429
vt 0.781250000 0.984375000
vt 0.815972240 0.850446429
vt 0.781250000 0.783482143
vt 0.322916667 0.783482143
vt 0.218750000 0.850446429
vt 0.218750000 0.783482143
vt 0.781250000 0.984375000
vt 0.989583333 0.984375000
vt 0.815972240 0.850446429
vt 0.815972240 0.850446429
vt 0.989583333 0.984375000
vt 0.989583333 0.850446429
vt 0.114583333 0.850446429
vt 0.114583333 0.783482143
vt 0.218750000 0.850446429
vt 0.218750000 0.850446429
vt 0.114583333 0.783482143
vt 0.218750000 0.783482143
vt 0.815972240 0.328125000
vt 0.989583333 0.328125000
vt 0.815972240 0.171875000
vt 0.815972240 0.171875000
vt 0.989583333 0.328125000
vt 0.989583333 0.171875000
vt 0.036458333 0.283482143
vt 0.114583333 0.283482143
vt 0.088541667 0.417410714
vt 0.088541667 0.417410714
vt 0.114583333 0.283482143
vt 0.114583333 0.484375000
vt 0.447916667 0.015625000
vt 0.369791667 0.171875000
vt 0.369791667 0.015625000
vt 0.703125000 0.783482143
vt 0.755208333 0.917410714
vt 0.781250000 0.783482143
vt 0.781250000 0.783482143
vt 0.755208333 0.917410714
vt 0.781250000 0.984375000
vt 0.447916667 0.484375000
vt 0.500000000 0.328125000
vt 0.500000000 0.484375000
vt 0.447916667 0.328125000
vt 0.447916667 0.171875000
vt 0.656250000 0.328125000
vt 0.656250000 0.328125000
vt 0.447916667 0.171875000
vt 0.656250000 0.171875000
vt 0.552083333 0.917410714
vt 0.447916667 0.917410714
vt 0.552083333 0.984375000
vt 0.552083333 0.984375000
vt 0.447916667 0.917410714
vt 0.447916667 0.984375000
vt 0.114583333 0.984375000
vt 0.114583333 0.850446429
vt 0.218750000 0.984375000
vt 0.218750000 0.984375000
vt 0.114583333 0.850446429
vt 0.218750000 0.850446429
vt 0.552083333 0.917410714
vt 0.552083333 0.783482143
vt 0.447916667 0.917410714
vt 0.447916667 0.917410714
vt 0.552083333 0.783482143
vt 0.447916667 0.783482143
vt 0.500000000 0.171875000
vt 0.447916667 0.015625000
vt 0.500000000 0.015625000
vt 0.369791667 0.328125000
vt 0.447916667 0.484375000
vt 0.369791667 0.484375000
vt 0.322916667 0.015625000
vt 0.322916667 0.149553571
vt 0.010416667 0.015625000
vt 0.010416667 0.015625000
vt 0.322916667 0.149553571
vt 0.010416667 0.149553571
vt 0.010416667 0.149553571
vt 0.322916667 0.149553571
vt 0.166666667 0.283482143
vt 0.010416667 0.149553571
vt 0.166666667 0.283482143
vt 0.114583333 0.283482143
vt 0.114583333 0.283482143
vt 0.036458333 0.283482143
vt 0.010416667 0.149553571
vt 0.322916667 0.515625000
vt 0.322916667 0.649553571
vt 0.010416667 0.515625000
vt 0.010416667 0.515625000
vt 0.322916667 0.649553571
vt 0.010416667 0.649553571
vt 0.656250000 0.484375000
vt 0.500000000 0.328125000
vt 0.656250000 0.015625000
vt 0.656250000 0.015625000
vt 0.500000000 0.328125000
vt 0.500000000 0.171875000
vt 0.656250000 0.015625000
vt 0.500000000 0.171875000
vt 0.500000000 0.015625000
vt 0.656250000 0.484375000
vt 0.500000000 0.484375000
vt 0.500000000 0.328125000
vt 0.343750000 0.783482143
vt 0.447916667 0.783482143
vt 0.343750000 0.649553571
vt 0.343750000 0.649553571
vt 0.447916667 0.783482143
vt 0.552083333 0.783482143
vt 0.343750000 0.649553571
vt 0.552083333 0.783482143
vt 0.656250000 0.649553571
vt 0.656250000 0.649553571
vt 0.552083333 0.783482143
vt 0.656250000 0.783482143
vt 0.656250000 0.649553571
vt 0.656250000 0.515625000
vt 0.343750000 0.649553571
vt 0.343750000 0.649553571
vt 0.656250000 0.515625000
vt 0.343750000 0.515625000
vt 0.677083333 0.484375000
vt 0.989583333 0.484375000
vt 0.677083333 0.015625000
vt 0.677083333 0.015625000
vt 0.989583333 0.484375000
vt 0.989583333 0.015625000
vt 0.989583333 0.515625000
vt 0.677083333 0.515625000
vt 0.989583333 0.649553571
vt 0.989583333 0.649553571
vt 0.677083333 0.515625000
vt 0.677083333 0.649553571
vt 0.989583333 0.649553571
vt 0.677083333 0.649553571
vt 0.833333333 0.783482143
vt 0.833333333 0.783482143
vt 0.677083333 0.649553571
vt 0.781250000 0.783482143
vt 0.781250000 0.783482143
vt 0.677083333 0.649553571
vt 0.703125000 0.783482143
vn 0.639601960 -0.639602280 0.426401520
vn 0.639601960 -0.639602280 0.426401520
vn 0.639601960 -0.639602280 0.426401520
vn 0.639602265 -0.639602265 0.426401084
vn 0.639602265 -0.639602265 0.426401084
vn 0.639602265 -0.639602265 0.426401084
vn 0.000000000 -1.000000000 0.000000000
vn 0.000000000 -1.000000000 0.000000000
vn 0.000000000 -1.000000000 0.000000000
vn 0.000000000 -1.000000000 -0.000000000
vn 0.000000000 -1.000000000 -0.000000000
vn 0.000000000 -1.000000000 -0.000000000
vn 0.639601960 0.639602280 0.426401520
vn 0.639601960 0.639602280 0.426401520
vn 0.639601960 0.639602280 0.426401520
vn 0.639602265 0.639602265 0.426401084
vn 0.639602265 0.639602265 0.426401084
vn 0.639602265 0.639602265 0.426401084
vn -0.000000000 1.000000000 0.000000000
vn -0.000000000 1.000000000 0.000000000
vn -0.000000000 1.000000000 0.000000000
vn 0.000000000 1.000000000 0.000000000
vn 0.000000000 1.000000000 0.000000000
vn 0.000000000 1.000000000 0.000000000
vn 0.832050550 -0.000000000 0.554699812
vn 0.832050550 -0.000000000 0.554699812
vn 0.832050550 -0.000000000 0.554699812
vn 0.832050550 0.000000000 0.554699812
vn 0.832050550 0.000000000 0.554699812
vn 0.832050550 0.000000000 0.554699812
vn 0.000000000 0.000000000 -1.000000000
vn 0.000000000 0.000000000 -1.000000000
vn 0.000000000 0.000000000 -1.000000000
vn 0.000000000 0.000000000 -1.000000000
vn 0.000000000 0.000000000 -1.000000000
vn 0.000000000 0.000000000 -1.000000000
vn -0.485071250 -0.727606875 0.485071250
vn -0.485071250 -0.727606875 0.485071250
vn -0.485071250 -0.727606875 0.485071250
vn -0.485071250 -0.727606875 0.485071250
vn -0.485071250 -0.727606875 0.485071250
vn -0.485071250 -0.727606875 0.485071250
vn 0.000000000 0.000000000 1.000000000
vn 0.000000000 0.000000000 1.000000000
vn 0.000000000 0.000000000 1.000000000
vn -0.485071250 0.727606875 0.485071250
vn -0.485071250 0.727606875 0.485071250
vn -0.485071250 0.727606875 0.485071250
vn -0.485071250 0.727606875 0.485071250
vn -0.485071250 0.727606875 0.485071250
vn -0.485071250 0.727606875 0.485071250
vn -0.000000000 0.000000000 1.000000000
vn -0.000000000 0.000000000 1.000000000
vn -0.000000000 0.000000000 1.000000000
vn -0.000000000 0.000000000 1.000000000
vn -0.000000000 0.000000000 1.000000000
vn -0.000000000 0.000000000 1.000000000
vn 0.000000000 0.000000000 1.000000000
vn 0.000000000 0.000000000 1.000000000
vn 0.000000000 0.000000000 1.000000000
vn -0.707106781 0.000000000 0.707106781
vn -0.707106781 0.000000000 0.707106781
vn -0.707106781 0.000000000 0.707106781
vn -0.707106781 0.000000000 0.707106781
vn -0.707106781 0.000000000 0.707106781
vn -0.707106781 0.000000000 0.707106781
vn 1.000000000 -0.000000000 0.000000000
vn 1.000000000 -0.000000000 0.000000000
vn 1.000000000 -0.000000000 0.000000000
vn 1.000000000 0.000000000 0.000000000
vn 1.000000000 0.000000000 0.000000000
vn 1.000000000 0.000000000 0.000000000
vn -0.707106781 0.000000000 0.707106781
vn -0.707106781 0.000000000 0.707106781
vn -0.707106781 0.000000000 0.707106781
vn -0.707106781 0.000000000 0.707106781
vn -0.707106781 0.000000000 0.707106781
vn -0.707106781 0.000000000 0.707106781
vn 0.000000000 0.000000000 1.000000000
vn 0.000000000 0.000000000 1.000000000
vn 0.000000000 0.000000000 1.000000000
vn 0.000000000 0.000000000 1.000000000
vn 0.000000000 0.000000000 1.000000000
vn 0.000000000 0.000000000 1.000000000
vn 0.000000000 -1.000000000 0.000000000
vn 0.000000000 -1.000000000 0.000000000
vn 0.000000000 -1.000000000 0.000000000
vn 0.000000000 -1.000000000 0.000000000
vn 0.000000000 -1.000000000 0.000000000
vn 0.000000000 -1.000000000 0.000000000
vn 0.000000000 -1.000000000 0.000000000
vn 0.000000000 -1.000000000 0.000000000
vn 0.000000000 -1.000000000 0.000000000
vn 0.000000000 -1.000000000 0.000000000
vn 0.000000000 -1.000000000 0.000000000
vn 0.000000000 -1.000000000 0.000000000
vn -0.000000000 -1.000000000 0.000000000
vn -0.000000000 -1.000000000 0.000000000
vn -0.000000000 -1.000000000 0.000000000
vn 1.000000000 0.000000000 -0.000000000
vn 1.000000000 0.000000000 -0.000000000
vn 1.000000000 0.000000000 -0.000000000
vn 1.000000000 0.000000000 0.000000000
vn 1.000000000 0.000000000 0.000000000
vn 1.000000000 0.000000000 0.000000000
vn 0.316227766 0.000000000 0.948683298
vn 0.316227766 0.000000000 0.948683298
vn 0.316227766 0.000000000 0.948683298
vn 0.316227766 0.000000000 0.948683298
vn 0.316227766 0.000000000 0.948683298
vn 0.316227766 0.000000000 0.948683298
vn 0.316227766 0.000000000 0.948683298
vn 0.316227766 0.000000000 0.948683298
vn 0.316227766 0.000000000 0.948683298
vn 0.316227766 0.000000000 0.948683298
vn 0.316227766 0.000000000 0.948683298
vn 0.316227766 0.000000000 0.948683298
vn -0.894427191 0.000000000 0.447213595
vn -0.894427191 0.000000000 0.447213595
vn -0.894427191 0.000000000 0.447213595
vn -0.894427191 0.000000000 0.447213595
vn -0.894427191 0.000000000 0.447213595
vn -0.894427191 0.000000000 0.447213595
vn -0.894427191 0.000000000 0.447213595
vn -0.894427191 0.000000000 0.447213595
vn -0.894427191 0.000000000 0.447213595
vn -0.894427191 0.000000000 0.447213595
vn -0.894427191 0.000000000 0.447213595
vn -0.894427191 0.000000000 0.447213595
vn -1.000000000 -0.000000000 -0.000000000
vn -1.000000000 -0.000000000 -0.000000000
vn -1.000000000 -0.000000000 -0.000000000
vn -1.000000000 0.000000000 0.000000000
vn -1.000000000 0.000000000 0.000000000
vn -1.000000000 0.000000000 0.000000000
vn 0.000000000 0.000000000 -1.000000000
vn 0.000000000 0.000000000 -1.000000000
vn 0.000000000 0.000000000 -1.000000000
vn 0.000000000 0.000000000 -1.000000000
vn 0.000000000 0.000000000 -1.000000000
vn 0.000000000 0.000000000 -1.000000000
vn 0.000000000 1.000000000 -0.000000000
vn 0.000000000 1.000000000 -0.000000000
vn 0.000000000 1.000000000 -0.000000000
vn 0.000000000 1.000000000 0.000000000
vn 0.000000000 1.000000000 0.000000000
vn 0.000000000 1.000000000 0.000000000
vn 0.000000000 1.000000000 0.000000000
vn 0.000000000 1.000000000 0.000000000
vn 0.000000000 1.000000000 0.000000000
vn 0.000000000 1.000000000 0.000000000
vn 0.000000000 1.000000000 0.000000000
vn 0.000000000 1.000000000 0.000000000
vn 0.000000000 1.000000000 0.000000000
vn 0.000000000 1.000000000 0.000000000
vn 0.000000000 1.000000000 0.000000000
f 1/1/1 2/2/2 4/3/3
f 4/4/4 2/5/5 3/6/6
f 1/7/7 4/8/8 6/9/9
f 6/10/10 4/11/11 5/12/12
f 8/13/13 9/14/14 7/15/15
f 7/16/16 9/17/17 10/18/18
f 8/19/19 11/20/20 9/21/21
f 9/22/22 11/23/23 12/24/24
f 4/25/25 3/26/26 9/27/27
f 9/28/28 3/29/29 10/30/30
f 9/31/31 12/32/32 4/33/33
f 4/34/34 12/35/35 5/36/36
f 14/37/37 2/38/38 13/39/39
f 13/40/40 2/41/41 1/42/42
f 2/43/43 14/44/44 15/45/45
f 16/46/46 17/47/47 7/48/48
f 7/49/49 17/50/50 8/51/51
f 7/52/52 10/53/53 18/54/54
f 8/55/55 1/56/56 11/57/57
f 11/58/58 1/59/59 6/60/60
f 17/61/61 13/62/62 8/63/63
f 8/64/64 13/65/65 1/66/66
f 6/67/67 5/68/68 11/69/69
f 11/70/70 5/71/71 12/72/72
f 17/73/73 16/74/74 13/75/75
f 13/76/76 16/77/77 14/78/78
f 3/79/79 2/80/80 19/81/81
f 16/82/82 7/83/83 20/84/84
f 22/85/85 23/86/86 21/87/87
f 21/88/88 23/89/89 24/90/90
f 24/91/91 23/92/92 19/93/93
f 24/94/94 19/95/95 2/96/96
f 2/97/97 15/98/98 24/99/99
f 25/100/100 26/101/101 22/102/102
f 22/103/103 26/104/104 23/105/105
f 26/106/106 10/107/107 23/108/108
f 23/109/109 10/110/110 3/111/111
f 23/112/112 3/113/113 19/114/114
f 26/115/115 18/116/116 10/117/117
f 15/118/118 14/119/119 24/120/120
f 24/121/121 14/122/122 16/123/123
f 24/124/124 16/125/125 27/126/126
f 27/127/127 16/128/128 20/129/129
f 27/130/130 28/131/131 24/132/132
f 24/133/133 28/134/134 21/135/135
f 28/136/136 25/137/137 21/138/138
f 21/139/139 25/140/140 22/141/141
f 25/142/142 28/143/143 26/144/144
f 26/145/145 28/146/146 27/147/147
f 26/148/148 27/149/149 18/150/150
f 18/151/151 27/152/152 7/153/153
f 7/154/154 27/155/155 20/156/156
