mtllib buildings.mtl
o house_body
usemtl house_wall
v -0.9 -0.7 0
v 0.9 -0.7 0
v 0.9 0.7 0
v -0.9 0.7 0
v -0.9 -0.7 0.6
v 0.9 -0.7 0.6
v 0.9 0.7 0.6
v -0.9 0.7 0.6
f 4 3 2 1
f 6 7 8 5
f 2 6 5 1
f 3 7 6 2
f 4 8 7 3
f 1 5 8 4
o triangular_prism_roof
usemtl roof_red
v -1.0 -0.78 0.6
v 1.0 -0.78 0.6
v 0 -0.78 1.0
v -1.0 0.78 0.6
v 1.0 0.78 0.6
v 0 0.78 1.0
f 9 10 11
f 12 14 13
f 9 12 13 10
f 10 13 14 11
f 11 14 12 9
o front_door
usemtl door
v -0.65 -0.73 0
v -0.25 -0.73 0
v -0.25 -0.73 0.52
v -0.65 -0.73 0.52
v -0.65 -0.70 0
v -0.25 -0.70 0
v -0.25 -0.70 0.52
v -0.65 -0.70 0.52
f 15 16 17 18
f 19 22 21 20
f 15 19 20 16
f 16 20 21 17
f 17 21 22 18
f 18 22 19 15
o front_window
usemtl glass
v 0.15 -0.73 0.14
v 0.68 -0.73 0.14
v 0.68 -0.73 0.48
v 0.15 -0.73 0.48
v 0.15 -0.70 0.14
v 0.68 -0.70 0.14
v 0.68 -0.70 0.48
v 0.15 -0.70 0.48
f 23 24 25 26
f 27 30 29 28
f 23 27 28 24
f 24 28 29 25
f 25 29 30 26
f 26 30 27 23
