mtllib buildings.mtl
o market_body
usemtl market_wall
v -1.3 -0.75 0
v 1.3 -0.75 0
v 1.3 0.75 0
v -1.3 0.75 0
v -1.3 -0.75 0.7
v 1.3 -0.75 0.7
v 1.3 0.75 0.7
v -1.3 0.75 0.7
f 4 3 2 1
f 6 7 8 5
f 2 6 5 1
f 3 7 6 2
f 4 8 7 3
f 1 5 8 4
o market_door
usemtl door
v -1.05 -0.78 0
v -0.58 -0.78 0
v -0.58 -0.78 0.52
v -1.05 -0.78 0.52
v -1.05 -0.75 0
v -0.58 -0.75 0
v -0.58 -0.75 0.52
v -1.05 -0.75 0.52
f 9 10 11 12
f 13 16 15 14
f 9 13 14 10
f 10 14 15 11
f 11 15 16 12
f 12 16 13 9
o long_front_window
usemtl glass
v -0.35 -0.78 0.14
v 1.05 -0.78 0.14
v 1.05 -0.78 0.48
v -0.35 -0.78 0.48
v -0.35 -0.75 0.14
v 1.05 -0.75 0.14
v 1.05 -0.75 0.48
v -0.35 -0.75 0.48
f 17 18 19 20
f 21 24 23 22
f 17 21 22 18
f 18 22 23 19
f 19 23 24 20
f 20 24 21 17
