mtllib buildings.mtl
o beige_square_pad
usemtl tree_pad
v -0.2 -0.2 0
v 0.2 -0.2 0
v 0.2 0.2 0
v -0.2 0.2 0
v -0.2 -0.2 0.04
v 0.2 -0.2 0.04
v 0.2 0.2 0.04
v -0.2 0.2 0.04
f 4 3 2 1
f 5 6 7 8
f 1 2 6 5
f 2 3 7 6
f 3 4 8 7
f 4 1 5 8
o brown_trunk
usemtl tree_trunk
v -0.05 -0.05 0.04
v 0.05 -0.05 0.04
v 0.05 0.05 0.04
v -0.05 0.05 0.04
v -0.05 -0.05 0.95
v 0.05 -0.05 0.95
v 0.05 0.05 0.95
v -0.05 0.05 0.95
f 12 11 10 9
f 13 14 15 16
f 9 10 14 13
f 10 11 15 14
f 11 12 16 15
f 12 9 13 16
o large_truncated_octagonal_prism
usemtl leaf_large
v 0.7 0 0.75
v 0.494975 0.494975 0.75
v 0 0.7 0.75
v -0.494975 0.494975 0.75
v -0.7 0 0.75
v -0.494975 -0.494975 0.75
v 0 -0.7 0.75
v 0.494975 -0.494975 0.75
v 0.5 0 1.45
v 0.353553 0.353553 1.45
v 0 0.5 1.45
v -0.353553 0.353553 1.45
v -0.5 0 1.45
v -0.353553 -0.353553 1.45
v 0 -0.5 1.45
v 0.353553 -0.353553 1.45
f 24 23 22 21 20 19 18 17
f 25 26 27 28 29 30 31 32
f 17 18 26 25
f 18 19 27 26
f 19 20 28 27
f 20 21 29 28
f 21 22 30 29
f 22 23 31 30
f 23 24 32 31
f 24 17 25 32
o small_truncated_octagonal_prism
usemtl leaf_small
v 0.5 0 1.35
v 0.353553 0.353553 1.35
v 0 0.5 1.35
v -0.353553 0.353553 1.35
v -0.5 0 1.35
v -0.353553 -0.353553 1.35
v 0 -0.5 1.35
v 0.353553 -0.353553 1.35
v 0.28 0 2.0
v 0.197990 0.197990 2.0
v 0 0.28 2.0
v -0.197990 0.197990 2.0
v -0.28 0 2.0
v -0.197990 -0.197990 2.0
v 0 -0.28 2.0
v 0.197990 -0.197990 2.0
f 40 39 38 37 36 35 34 33
f 41 42 43 44 45 46 47 48
f 33 34 42 41
f 34 35 43 42
f 35 36 44 43
f 36 37 45 44
f 37 38 46 45
f 38 39 47 46
f 39 40 48 47
f 40 33 41 48
